<svg width="256" height="256" viewBox="0 0 256 256" fill="none" xmlns="http://www.w3.org/2000/svg">
<rect width="256" height="256" rx="2.24" fill="#EEECE8"/>
<path d="M59.1366 43.7812C58.6405 43.7812 58.2383 44.1834 58.2383 44.6796V155.171C58.2383 155.667 58.6405 156.069 59.1366 156.069H79.9278C80.4239 156.069 80.8261 155.667 80.8261 155.171V78.1099H84.4867L117.505 155.523C117.646 155.854 117.971 156.069 118.331 156.069H137.666C138.026 156.069 138.351 155.854 138.492 155.523L171.51 78.1099H175.17V155.171C175.17 155.667 175.573 156.069 176.069 156.069H196.86C197.356 156.069 197.758 155.667 197.758 155.171V44.6796C197.758 44.1834 197.356 43.7812 196.86 43.7812H164.149C163.789 43.7812 163.464 43.9961 163.323 44.3272L129.829 122.863H126.168L92.674 44.3272C92.5328 43.9961 92.2076 43.7812 91.8477 43.7812H59.1366Z" fill="#272525"/>
<path d="M58.2383 190.654C58.2383 190.158 58.6405 189.756 59.1366 189.756H196.86C197.356 189.756 197.758 190.158 197.758 190.654V211.315C197.758 211.811 197.356 212.213 196.86 212.213H59.1366C58.6405 212.213 58.2383 211.811 58.2383 211.315V190.654Z" fill="#272525"/>
</svg>
